<svg xmlns="http://www.w3.org/2000/svg" viewBox="0 0 400 320" fill="none" aria-hidden="true">
  <rect width="400" height="320" fill="#F6F8FC"/>
  <ellipse cx="80" cy="260" rx="96" ry="48" fill="#E8F4FC"/>
  <ellipse cx="310" cy="70" rx="76" ry="40" fill="#E8F4FC"/>
  <path d="M52 72h28v6H52zM56 86h20v4H56z" stroke="#B8D4E8" stroke-width="2" stroke-linecap="round"/>
  <!-- search window -->
  <g transform="translate(36 44)">
    <rect width="120" height="88" rx="10" fill="#fff" stroke="#1B2A4A" stroke-width="2"/>
    <rect x="12" y="14" width="72" height="12" rx="6" fill="#F0F6FC" stroke="#B8D4E8" stroke-width="1.5"/>
    <circle cx="78" cy="20" r="6" fill="#2BC4F0"/>
    <path d="M82 24l6 6" stroke="#3F6FD6" stroke-width="2" stroke-linecap="round"/>
    <rect x="12" y="36" width="96" height="6" rx="3" fill="#E8EEF5"/>
    <rect x="12" y="48" width="80" height="5" rx="2.5" fill="#E8EEF5"/>
    <rect x="12" y="58" width="88" height="5" rx="2.5" fill="#E8EEF5"/>
    <rect x="12" y="68" width="64" height="5" rx="2.5" fill="#E8EEF5"/>
  </g>
  <!-- chart -->
  <g transform="translate(268 52)">
    <rect width="88" height="72" rx="10" fill="#fff" stroke="#1B2A4A" stroke-width="2"/>
    <rect x="16" y="48" width="10" height="16" rx="2" fill="#3F6FD6"/>
    <rect x="30" y="40" width="10" height="24" rx="2" fill="#2BC4F0"/>
    <rect x="44" y="30" width="10" height="34" rx="2" fill="#5AE0A0"/>
    <rect x="58" y="22" width="10" height="42" rx="2" fill="#3F6FD6"/>
    <path d="M18 20h52" stroke="#E8EEF5" stroke-width="2"/>
  </g>
  <!-- desk -->
  <rect x="108" y="228" width="184" height="10" rx="4" fill="#fff" stroke="#1B2A4A" stroke-width="2"/>
  <path d="M120 238v28h24V238zM256 238v28h24V238z" fill="#E8EEF5" stroke="#1B2A4A" stroke-width="2"/>
  <!-- chair -->
  <path d="M148 238h-20v36c0 6 4 10 10 10h8" fill="#fff" stroke="#1B2A4A" stroke-width="2" stroke-linejoin="round"/>
  <!-- person -->
  <circle cx="200" cy="118" r="26" fill="#FFD4B8" stroke="#1B2A4A" stroke-width="2"/>
  <path d="M182 112c8-12 22-12 32 0" stroke="#1B2A4A" stroke-width="2.5" stroke-linecap="round"/>
  <circle cx="192" cy="118" r="2.5" fill="#1B2A4A"/>
  <circle cx="208" cy="118" r="2.5" fill="#1B2A4A"/>
  <path d="M194 126q6 3 12 0" stroke="#1B2A4A" stroke-width="2" stroke-linecap="round"/>
  <path d="M168 148c-4 28 0 52 16 60h32c16-8 20-32 16-60" fill="#5AE0A0" stroke="#1B2A4A" stroke-width="2"/>
  <path d="M152 168c-12 4-16 20-8 28M248 168c12 4 16 20 8 28" stroke="#FFD4B8" stroke-width="12" stroke-linecap="round"/>
  <!-- laptop -->
  <rect x="156" y="196" width="88" height="32" rx="4" fill="#E8EEF5" stroke="#1B2A4A" stroke-width="2"/>
  <rect x="160" y="200" width="80" height="22" rx="2" fill="#fff"/>
  <rect x="164" y="204" width="72" height="4" rx="2" fill="#D8E6F2"/>
  <rect x="164" y="212" width="48" height="3" rx="1.5" fill="#E8EEF5"/>
  <path d="M148 228h104l8 6H140l8-6z" fill="#D8E6F2" stroke="#1B2A4A" stroke-width="2" stroke-linejoin="round"/>
  <!-- rank arrow -->
  <g transform="translate(228 176)">
    <circle cx="20" cy="20" r="20" fill="#fff" stroke="#1B2A4A" stroke-width="2"/>
    <path d="M12 24l8-14 8 14" stroke="#3F6FD6" stroke-width="2.5" stroke-linecap="round" stroke-linejoin="round"/>
    <path d="M10 24h20" stroke="#2BC4F0" stroke-width="2" stroke-linecap="round"/>
  </g>
</svg>
