<svg xmlns="http://www.w3.org/2000/svg" viewBox="0 0 400 320" fill="none" aria-hidden="true">
  <rect width="400" height="320" fill="#F6F8FC"/>
  <ellipse cx="72" cy="248" rx="88" ry="52" fill="#E8F4FC"/>
  <ellipse cx="320" cy="64" rx="70" ry="44" fill="#E8F4FC"/>
  <path d="M48 88h24v8H48zM52 104h16v4H52z" stroke="#B8D4E8" stroke-width="2" stroke-linecap="round"/>
  <path d="M300 200h20v6h-20zM304 212h12v3h-12z" stroke="#B8D4E8" stroke-width="2" stroke-linecap="round"/>
  <!-- floating social tiles -->
  <g transform="translate(48 52)">
    <rect width="52" height="52" rx="10" fill="#fff" stroke="#1B2A4A" stroke-width="2"/>
    <circle cx="26" cy="22" r="10" fill="#FF6B8A"/>
    <rect x="14" y="34" width="24" height="4" rx="2" fill="#E8EEF5"/>
    <rect x="18" y="42" width="16" height="3" rx="1.5" fill="#E8EEF5"/>
  </g>
  <g transform="translate(292 48)">
    <rect width="44" height="44" rx="10" fill="#fff" stroke="#1B2A4A" stroke-width="2"/>
    <path d="M22 14c-4 0-7 3-7 7 0 5 7 11 7 11s7-6 7-11c0-4-3-7-7-7z" fill="#FF6B8A" stroke="#1B2A4A" stroke-width="1.5"/>
  </g>
  <!-- person -->
  <ellipse cx="200" cy="278" rx="56" ry="10" fill="#D8E6F2"/>
  <path d="M168 168c0-22 14-36 32-36s32 14 32 36v72h-64V168z" fill="#5AE0A0" stroke="#1B2A4A" stroke-width="2"/>
  <circle cx="200" cy="128" r="28" fill="#FFD4B8" stroke="#1B2A4A" stroke-width="2"/>
  <path d="M178 120c6-10 18-12 28-6 4 3 6 8 4 12" stroke="#1B2A4A" stroke-width="2" stroke-linecap="round"/>
  <circle cx="190" cy="128" r="2.5" fill="#1B2A4A"/>
  <circle cx="210" cy="128" r="2.5" fill="#1B2A4A"/>
  <path d="M194 138q6 4 12 0" stroke="#1B2A4A" stroke-width="2" stroke-linecap="round"/>
  <!-- arms + phone -->
  <path d="M152 196c-8 12-4 28 8 32" stroke="#FFD4B8" stroke-width="14" stroke-linecap="round"/>
  <path d="M248 196c8 12 4 28-8 32" stroke="#FFD4B8" stroke-width="14" stroke-linecap="round"/>
  <rect x="172" y="188" width="56" height="96" rx="10" fill="#1B2A4A"/>
  <rect x="176" y="192" width="48" height="88" rx="8" fill="#fff"/>
  <rect x="182" y="200" width="36" height="6" rx="3" fill="#E8EEF5"/>
  <rect x="182" y="212" width="36" height="28" rx="4" fill="#F0F6FC"/>
  <rect x="186" y="216" width="28" height="4" rx="2" fill="#D8E6F2"/>
  <rect x="186" y="224" width="22" height="3" rx="1.5" fill="#D8E6F2"/>
  <rect x="186" y="230" width="26" height="3" rx="1.5" fill="#D8E6F2"/>
  <rect x="186" y="236" width="18" height="3" rx="1.5" fill="#D8E6F2"/>
  <!-- scroll thumb -->
  <rect x="212" y="218" width="4" height="18" rx="2" fill="#2BC4F0" opacity=".7"/>
  <circle cx="200" cy="252" r="6" fill="none" stroke="#FF6B8A" stroke-width="2"/>
  <path d="M196 252h8M200 248v8" stroke="#FF6B8A" stroke-width="1.5" stroke-linecap="round"/>
</svg>
